<svg xmlns="http://www.w3.org/2000/svg" width="640" height="400" viewBox="0 0 640 400">
  <defs>
    <linearGradient id="g15270" x1="0" y1="0" x2="1" y2="1">
      <stop offset="0%" stop-color="#ebf5f6"/>
      <stop offset="100%" stop-color="#ffffe7"/>
    </linearGradient>
  </defs>
  <rect width="100%" height="100%" fill="url(#g15270)"/>
  <circle cx="463" cy="33" r="23" fill="#eeae28" opacity="0.18"/>
  <circle cx="403" cy="343" r="53" fill="#2c7e9c" opacity="0.12"/>
  <rect x="70.9" y="141.0" width="37.0" height="130.0" rx="6" fill="#0e607e" opacity="0.92"/><rect x="70.9" y="123.0" width="37.0" height="18" rx="4" fill="#ba8e0f"/><rect x="74.9" y="186.5" width="29.0" height="28.6" rx="2" fill="#ffffff" opacity="0.85"/><rect x="160.4" y="139.5" width="35.0" height="145.0" rx="6" fill="#1d5686" opacity="0.92"/><rect x="160.4" y="119.5" width="35.0" height="20" rx="4" fill="#c68600"/><rect x="164.4" y="190.2" width="27.0" height="31.9" rx="2" fill="#ffffff" opacity="0.85"/><rect x="256.3" y="131.0" width="34.0" height="152.0" rx="6" fill="#0e607e" opacity="0.92"/><rect x="256.3" y="109.0" width="34.0" height="22" rx="4" fill="#ba8e0f"/><rect x="260.3" y="184.2" width="26.0" height="33.4" rx="2" fill="#ffffff" opacity="0.85"/><rect x="349.2" y="135.0" width="39.0" height="156.0" rx="6" fill="#1d5686" opacity="0.92"/><rect x="349.2" y="117.0" width="39.0" height="18" rx="4" fill="#c68600"/><rect x="353.2" y="189.6" width="31.0" height="34.3" rx="2" fill="#ffffff" opacity="0.85"/><rect x="439.1" y="135.0" width="36.0" height="158.0" rx="6" fill="#0e607e" opacity="0.92"/><rect x="439.1" y="115.0" width="36.0" height="20" rx="4" fill="#ba8e0f"/><rect x="443.1" y="190.3" width="28.0" height="34.8" rx="2" fill="#ffffff" opacity="0.85"/><rect x="531.6" y="134.5" width="40.0" height="159.0" rx="6" fill="#1d5686" opacity="0.92"/><rect x="531.6" y="112.5" width="40.0" height="22" rx="4" fill="#c68600"/><rect x="535.6" y="190.2" width="32.0" height="35.0" rx="2" fill="#ffffff" opacity="0.85"/>
  <text x="24" y="36" font-family="Arial, sans-serif" font-size="18" font-weight="700" fill="#0e607e">P15270</text>
  <text x="24" y="62" font-family="Arial, sans-serif" font-size="14" fill="#334155">FITC Beta-Amyloid (1-4…</text>
  <text x="24" y="380" font-family="Arial, sans-serif" font-size="12" fill="#64748b">Peptides · unique image</text>
</svg>
