<svg xmlns="http://www.w3.org/2000/svg" width="640" height="400" viewBox="0 0 640 400">
  <defs>
    <linearGradient id="g15392" x1="0" y1="0" x2="1" y2="1">
      <stop offset="0%" stop-color="#f8ffff"/>
      <stop offset="100%" stop-color="#fffff0"/>
    </linearGradient>
  </defs>
  <rect width="100%" height="100%" fill="url(#g15392)"/>
  <circle cx="301" cy="71" r="21" fill="#4e95ff" opacity="0.18"/>
  <circle cx="441" cy="351" r="41" fill="#249987" opacity="0.12"/>
  <rect x="108.5" y="144.0" width="35.0" height="140.0" rx="6" fill="#067b69" opacity="0.92"/><rect x="108.5" y="126.0" width="35.0" height="18" rx="4" fill="#1a75ff"/><rect x="112.5" y="193.0" width="27.0" height="30.8" rx="2" fill="#f8fafc" opacity="0.85"/><rect x="237.0" y="135.0" width="34.0" height="150.0" rx="6" fill="#157171" opacity="0.92"/><rect x="237.0" y="115.0" width="34.0" height="20" rx="4" fill="#266df9"/><rect x="241.0" y="187.5" width="26.0" height="33.0" rx="2" fill="#f8fafc" opacity="0.85"/><rect x="363.0" y="139.5" width="34.0" height="135.0" rx="6" fill="#067b69" opacity="0.92"/><rect x="363.0" y="117.5" width="34.0" height="22" rx="4" fill="#1a75ff"/><rect x="367.0" y="186.8" width="26.0" height="29.7" rx="2" fill="#f8fafc" opacity="0.85"/><rect x="492.0" y="146.5" width="34.0" height="127.0" rx="6" fill="#157171" opacity="0.92"/><rect x="492.0" y="128.5" width="34.0" height="18" rx="4" fill="#266df9"/><rect x="496.0" y="190.9" width="26.0" height="27.9" rx="2" fill="#f8fafc" opacity="0.85"/>
  <text x="24" y="36" font-family="Arial, sans-serif" font-size="18" font-weight="700" fill="#067b69">P15392</text>
  <text x="24" y="62" font-family="Arial, sans-serif" font-size="14" fill="#334155">Beta-Amyloid 7E7 Antib…</text>
  <text x="24" y="380" font-family="Arial, sans-serif" font-size="12" fill="#64748b">Antibodies · unique image</text>
</svg>
