<svg xmlns="http://www.w3.org/2000/svg" width="640" height="400" viewBox="0 0 640 400">
  <defs>
    <linearGradient id="g15613" x1="0" y1="0" x2="1" y2="1">
      <stop offset="0%" stop-color="#d4e5eb"/>
      <stop offset="100%" stop-color="#e8efdc"/>
    </linearGradient>
  </defs>
  <rect width="100%" height="100%" fill="url(#g15613)"/>
  <circle cx="210" cy="80" r="30" fill="#ffc635" opacity="0.18"/>
  <circle cx="450" cy="330" r="50" fill="#3b6da5" opacity="0.12"/>
  <rect x="140.0" y="150.0" width="34.0" height="122.0" rx="6" fill="#1d4f87" opacity="0.92"/><rect x="140.0" y="132.0" width="34.0" height="18" rx="4" fill="#daa61c"/><rect x="144.0" y="192.7" width="26.0" height="26.8" rx="2" fill="#ffffff" opacity="0.85"/><rect x="295.5" y="138.5" width="39.0" height="141.0" rx="6" fill="#2c458f" opacity="0.92"/><rect x="295.5" y="118.5" width="39.0" height="20" rx="4" fill="#e69e0d"/><rect x="299.5" y="187.8" width="31.0" height="31.0" rx="2" fill="#ffffff" opacity="0.85"/><rect x="466.0" y="148.0" width="36.0" height="130.0" rx="6" fill="#1d4f87" opacity="0.92"/><rect x="466.0" y="126.0" width="36.0" height="22" rx="4" fill="#daa61c"/><rect x="470.0" y="193.5" width="28.0" height="28.6" rx="2" fill="#ffffff" opacity="0.85"/>
  <text x="24" y="36" font-family="Arial, sans-serif" font-size="18" font-weight="700" fill="#1d4f87">P15613</text>
  <text x="24" y="62" font-family="Arial, sans-serif" font-size="14" fill="#334155">Coronavirus Nucleoprot…</text>
  <text x="24" y="380" font-family="Arial, sans-serif" font-size="12" fill="#64748b">Coronavirus Research Tools · unique image</text>
</svg>
