<svg xmlns="http://www.w3.org/2000/svg" width="640" height="400" viewBox="0 0 640 400">
  <defs>
    <linearGradient id="g17959" x1="0" y1="0" x2="1" y2="1">
      <stop offset="0%" stop-color="#f2e0fa"/>
      <stop offset="100%" stop-color="#ffeaeb"/>
    </linearGradient>
  </defs>
  <rect width="100%" height="100%" fill="url(#g17959)"/>
  <circle cx="414" cy="44" r="34" fill="#6b75ff" opacity="0.18"/>
  <circle cx="354" cy="324" r="54" fill="#bf336a" opacity="0.12"/>
  <rect x="59.0" y="137.5" width="38.0" height="153.0" rx="6" fill="#a1154c" opacity="0.92"/><rect x="59.0" y="119.5" width="38.0" height="18" rx="4" fill="#3755ff"/><rect x="63.0" y="191.1" width="30.0" height="33.7" rx="2" fill="#fce7f3" opacity="0.85"/><rect x="135.5" y="144.0" width="41.0" height="136.0" rx="6" fill="#b00b54" opacity="0.92"/><rect x="135.5" y="124.0" width="41.0" height="20" rx="4" fill="#434df1"/><rect x="139.5" y="191.6" width="33.0" height="29.9" rx="2" fill="#fce7f3" opacity="0.85"/><rect x="223.5" y="140.0" width="37.0" height="148.0" rx="6" fill="#a1154c" opacity="0.92"/><rect x="223.5" y="118.0" width="37.0" height="22" rx="4" fill="#3755ff"/><rect x="227.5" y="191.8" width="29.0" height="32.6" rx="2" fill="#fce7f3" opacity="0.85"/><rect x="298.0" y="131.0" width="40.0" height="154.0" rx="6" fill="#b00b54" opacity="0.92"/><rect x="298.0" y="113.0" width="40.0" height="18" rx="4" fill="#434df1"/><rect x="302.0" y="184.9" width="32.0" height="33.9" rx="2" fill="#fce7f3" opacity="0.85"/><rect x="384.0" y="134.5" width="42.0" height="157.0" rx="6" fill="#a1154c" opacity="0.92"/><rect x="384.0" y="114.5" width="42.0" height="20" rx="4" fill="#3755ff"/><rect x="388.0" y="189.4" width="34.0" height="34.5" rx="2" fill="#fce7f3" opacity="0.85"/><rect x="461.0" y="143.0" width="38.0" height="138.0" rx="6" fill="#b00b54" opacity="0.92"/><rect x="461.0" y="121.0" width="38.0" height="22" rx="4" fill="#434df1"/><rect x="465.0" y="191.3" width="30.0" height="30.4" rx="2" fill="#fce7f3" opacity="0.85"/><rect x="534.5" y="147.5" width="41.0" height="129.0" rx="6" fill="#a1154c" opacity="0.92"/><rect x="534.5" y="129.5" width="41.0" height="18" rx="4" fill="#3755ff"/><rect x="538.5" y="192.7" width="33.0" height="28.4" rx="2" fill="#fce7f3" opacity="0.85"/>
  <text x="24" y="36" font-family="Arial, sans-serif" font-size="18" font-weight="700" fill="#a1154c">P17959</text>
  <text x="24" y="62" font-family="Arial, sans-serif" font-size="14" fill="#334155">SARS-CoV-2 S1 Subunit …</text>
  <text x="24" y="380" font-family="Arial, sans-serif" font-size="12" fill="#64748b">Coronavirus Research Tools · unique image</text>
</svg>
