<svg xmlns="http://www.w3.org/2000/svg" width="640" height="400" viewBox="0 0 640 400">
  <defs>
    <linearGradient id="g17958" x1="0" y1="0" x2="1" y2="1">
      <stop offset="0%" stop-color="#f4e4e4"/>
      <stop offset="100%" stop-color="#ffeed5"/>
    </linearGradient>
  </defs>
  <rect width="100%" height="100%" fill="url(#g17958)"/>
  <circle cx="121" cy="51" r="41" fill="#588aff" opacity="0.18"/>
  <circle cx="361" cy="331" r="61" fill="#249583" opacity="0.12"/>
  <rect x="105.5" y="149.5" width="35.0" height="125.0" rx="6" fill="#067765" opacity="0.92"/><rect x="105.5" y="131.5" width="35.0" height="18" rx="4" fill="#246aed"/><rect x="109.5" y="193.2" width="27.0" height="27.5" rx="2" fill="#f8fafc" opacity="0.85"/><rect x="243.0" y="143.0" width="34.0" height="142.0" rx="6" fill="#156d6d" opacity="0.92"/><rect x="243.0" y="123.0" width="34.0" height="20" rx="4" fill="#3062de"/><rect x="247.0" y="192.7" width="26.0" height="31.2" rx="2" fill="#f8fafc" opacity="0.85"/><rect x="369.5" y="134.5" width="39.0" height="151.0" rx="6" fill="#067765" opacity="0.92"/><rect x="369.5" y="112.5" width="39.0" height="22" rx="4" fill="#246aed"/><rect x="373.5" y="187.3" width="31.0" height="33.2" rx="2" fill="#f8fafc" opacity="0.85"/><rect x="499.0" y="145.5" width="36.0" height="135.0" rx="6" fill="#156d6d" opacity="0.92"/><rect x="499.0" y="127.5" width="36.0" height="18" rx="4" fill="#3062de"/><rect x="503.0" y="192.8" width="28.0" height="29.7" rx="2" fill="#f8fafc" opacity="0.85"/>
  <text x="24" y="36" font-family="Arial, sans-serif" font-size="18" font-weight="700" fill="#067765">P17958</text>
  <text x="24" y="62" font-family="Arial, sans-serif" font-size="14" fill="#334155">Modulator Protease G #…</text>
  <text x="24" y="380" font-family="Arial, sans-serif" font-size="12" fill="#64748b">Neurodegenerative Related Compounds · unique image</text>
</svg>
