<svg xmlns="http://www.w3.org/2000/svg" width="640" height="400" viewBox="0 0 640 400">
  <defs>
    <linearGradient id="g18003" x1="0" y1="0" x2="1" y2="1">
      <stop offset="0%" stop-color="#ebe6f7"/>
      <stop offset="100%" stop-color="#fff0e8"/>
    </linearGradient>
  </defs>
  <rect width="100%" height="100%" fill="url(#g18003)"/>
  <circle cx="239" cy="49" r="39" fill="#d38828" opacity="0.18"/>
  <circle cx="479" cy="329" r="79" fill="#2e7fa4" opacity="0.12"/>
  <rect x="59.5" y="133.0" width="43.0" height="154.0" rx="6" fill="#106186" opacity="0.92"/><rect x="59.5" y="115.0" width="43.0" height="18" rx="4" fill="#9f680f"/><rect x="63.5" y="186.9" width="35.0" height="33.9" rx="2" fill="#f0f9ff" opacity="0.85"/><rect x="143.5" y="134.5" width="43.0" height="157.0" rx="6" fill="#1f578e" opacity="0.92"/><rect x="143.5" y="114.5" width="43.0" height="20" rx="4" fill="#ab6000"/><rect x="147.5" y="189.4" width="35.0" height="34.5" rx="2" fill="#f0f9ff" opacity="0.85"/><rect x="218.0" y="145.0" width="38.0" height="138.0" rx="6" fill="#106186" opacity="0.92"/><rect x="218.0" y="123.0" width="38.0" height="22" rx="4" fill="#9f680f"/><rect x="222.0" y="193.3" width="30.0" height="30.4" rx="2" fill="#f0f9ff" opacity="0.85"/><rect x="302.5" y="147.5" width="41.0" height="129.0" rx="6" fill="#1f578e" opacity="0.92"/><rect x="302.5" y="129.5" width="41.0" height="18" rx="4" fill="#ab6000"/><rect x="306.5" y="192.7" width="33.0" height="28.4" rx="2" fill="#f0f9ff" opacity="0.85"/><rect x="381.0" y="150.0" width="42.0" height="124.0" rx="6" fill="#106186" opacity="0.92"/><rect x="381.0" y="130.0" width="42.0" height="20" rx="4" fill="#9f680f"/><rect x="385.0" y="193.4" width="34.0" height="27.3" rx="2" fill="#f0f9ff" opacity="0.85"/><rect x="458.5" y="138.0" width="43.0" height="142.0" rx="6" fill="#1f578e" opacity="0.92"/><rect x="458.5" y="116.0" width="43.0" height="22" rx="4" fill="#ab6000"/><rect x="462.5" y="187.7" width="35.0" height="31.2" rx="2" fill="#f0f9ff" opacity="0.85"/><rect x="542.0" y="130.5" width="38.0" height="151.0" rx="6" fill="#106186" opacity="0.92"/><rect x="542.0" y="112.5" width="38.0" height="18" rx="4" fill="#9f680f"/><rect x="546.0" y="183.3" width="30.0" height="33.2" rx="2" fill="#f0f9ff" opacity="0.85"/>
  <text x="24" y="36" font-family="Arial, sans-serif" font-size="18" font-weight="700" fill="#106186">P18003</text>
  <text x="24" y="62" font-family="Arial, sans-serif" font-size="14" fill="#334155">PFF Beta-Amyloid (1-42…</text>
  <text x="24" y="380" font-family="Arial, sans-serif" font-size="12" fill="#64748b">Preformed Fibrils · unique image</text>
</svg>
