<svg xmlns="http://www.w3.org/2000/svg" width="640" height="400" viewBox="0 0 640 400">
  <defs>
    <linearGradient id="g18015" x1="0" y1="0" x2="1" y2="1">
      <stop offset="0%" stop-color="#cfe6ff"/>
      <stop offset="100%" stop-color="#e3f0f0"/>
    </linearGradient>
  </defs>
  <rect width="100%" height="100%" fill="url(#g18015)"/>
  <circle cx="219" cy="69" r="59" fill="#cf883e" opacity="0.18"/>
  <circle cx="559" cy="319" r="59" fill="#2e799c" opacity="0.12"/>
  <rect x="63.5" y="144.5" width="43.0" height="129.0" rx="6" fill="#105b7e" opacity="0.92"/><rect x="63.5" y="126.5" width="43.0" height="18" rx="4" fill="#9b6825"/><rect x="67.5" y="189.7" width="35.0" height="28.4" rx="2" fill="#f0f9ff" opacity="0.85"/><rect x="143.5" y="134.0" width="43.0" height="144.0" rx="6" fill="#1f5186" opacity="0.92"/><rect x="143.5" y="114.0" width="43.0" height="20" rx="4" fill="#a76016"/><rect x="147.5" y="184.4" width="35.0" height="31.7" rx="2" fill="#f0f9ff" opacity="0.85"/><rect x="217.5" y="142.0" width="43.0" height="132.0" rx="6" fill="#105b7e" opacity="0.92"/><rect x="217.5" y="120.0" width="43.0" height="22" rx="4" fill="#9b6825"/><rect x="221.5" y="188.2" width="35.0" height="29.0" rx="2" fill="#f0f9ff" opacity="0.85"/><rect x="300.0" y="138.0" width="38.0" height="146.0" rx="6" fill="#1f5186" opacity="0.92"/><rect x="300.0" y="120.0" width="38.0" height="18" rx="4" fill="#a76016"/><rect x="304.0" y="189.1" width="30.0" height="32.1" rx="2" fill="#f0f9ff" opacity="0.85"/><rect x="381.0" y="140.5" width="36.0" height="133.0" rx="6" fill="#105b7e" opacity="0.92"/><rect x="381.0" y="120.5" width="36.0" height="20" rx="4" fill="#9b6825"/><rect x="385.0" y="187.1" width="28.0" height="29.3" rx="2" fill="#f0f9ff" opacity="0.85"/><rect x="455.0" y="147.0" width="40.0" height="126.0" rx="6" fill="#1f5186" opacity="0.92"/><rect x="455.0" y="125.0" width="40.0" height="22" rx="4" fill="#a76016"/><rect x="459.0" y="191.1" width="32.0" height="27.7" rx="2" fill="#f0f9ff" opacity="0.85"/><rect x="536.5" y="149.5" width="37.0" height="123.0" rx="6" fill="#105b7e" opacity="0.92"/><rect x="536.5" y="131.5" width="37.0" height="18" rx="4" fill="#9b6825"/><rect x="540.5" y="192.6" width="29.0" height="27.1" rx="2" fill="#f0f9ff" opacity="0.85"/>
  <text x="24" y="36" font-family="Arial, sans-serif" font-size="18" font-weight="700" fill="#105b7e">P18015</text>
  <text x="24" y="62" font-family="Arial, sans-serif" font-size="14" fill="#334155">SARS-CoV-2 S1 Subunit …</text>
  <text x="24" y="380" font-family="Arial, sans-serif" font-size="12" fill="#64748b">Coronavirus Research Tools · unique image</text>
</svg>
