<svg xmlns="http://www.w3.org/2000/svg" width="640" height="400" viewBox="0 0 640 400">
  <defs>
    <linearGradient id="g18316" x1="0" y1="0" x2="1" y2="1">
      <stop offset="0%" stop-color="#ffe7f0"/>
      <stop offset="100%" stop-color="#fff1e1"/>
    </linearGradient>
  </defs>
  <rect width="100%" height="100%" fill="url(#g18316)"/>
  <circle cx="394" cy="104" r="54" fill="#6c68fe" opacity="0.18"/>
  <circle cx="534" cy="324" r="34" fill="#bf3c73" opacity="0.12"/>
  <rect x="61.0" y="140.0" width="38.0" height="148.0" rx="6" fill="#a11e55" opacity="0.92"/><rect x="61.0" y="122.0" width="38.0" height="18" rx="4" fill="#3848e5"/><rect x="65.0" y="191.8" width="30.0" height="32.6" rx="2" fill="#fce7f3" opacity="0.85"/><rect x="144.5" y="135.0" width="41.0" height="154.0" rx="6" fill="#b0145d" opacity="0.92"/><rect x="144.5" y="115.0" width="41.0" height="20" rx="4" fill="#4440d6"/><rect x="148.5" y="188.9" width="33.0" height="33.9" rx="2" fill="#fce7f3" opacity="0.85"/><rect x="215.0" y="143.5" width="42.0" height="137.0" rx="6" fill="#a11e55" opacity="0.92"/><rect x="215.0" y="121.5" width="42.0" height="22" rx="4" fill="#3848e5"/><rect x="219.0" y="191.4" width="34.0" height="30.1" rx="2" fill="#fce7f3" opacity="0.85"/><rect x="300.0" y="140.0" width="38.0" height="148.0" rx="6" fill="#b0145d" opacity="0.92"/><rect x="300.0" y="122.0" width="38.0" height="18" rx="4" fill="#4440d6"/><rect x="304.0" y="191.8" width="30.0" height="32.6" rx="2" fill="#fce7f3" opacity="0.85"/><rect x="375.5" y="135.0" width="41.0" height="154.0" rx="6" fill="#a11e55" opacity="0.92"/><rect x="375.5" y="115.0" width="41.0" height="20" rx="4" fill="#3848e5"/><rect x="379.5" y="188.9" width="33.0" height="33.9" rx="2" fill="#fce7f3" opacity="0.85"/><rect x="458.0" y="128.5" width="42.0" height="157.0" rx="6" fill="#b0145d" opacity="0.92"/><rect x="458.0" y="106.5" width="42.0" height="22" rx="4" fill="#4440d6"/><rect x="462.0" y="183.4" width="34.0" height="34.5" rx="2" fill="#fce7f3" opacity="0.85"/><rect x="543.0" y="131.0" width="38.0" height="158.0" rx="6" fill="#a11e55" opacity="0.92"/><rect x="543.0" y="113.0" width="38.0" height="18" rx="4" fill="#3848e5"/><rect x="547.0" y="186.3" width="30.0" height="34.8" rx="2" fill="#fce7f3" opacity="0.85"/>
  <text x="24" y="36" font-family="Arial, sans-serif" font-size="18" font-weight="700" fill="#a11e55">P18316</text>
  <text x="24" y="62" font-family="Arial, sans-serif" font-size="14" fill="#334155">Spike Related Antibody…</text>
  <text x="24" y="380" font-family="Arial, sans-serif" font-size="12" fill="#64748b">Coronavirus Research Tools · unique image</text>
</svg>
