<svg xmlns="http://www.w3.org/2000/svg" width="640" height="400" viewBox="0 0 640 400">
  <defs>
    <linearGradient id="g18887" x1="0" y1="0" x2="1" y2="1">
      <stop offset="0%" stop-color="#dae7f4"/>
      <stop offset="100%" stop-color="#eef1e5"/>
    </linearGradient>
  </defs>
  <rect width="100%" height="100%" fill="url(#g18887)"/>
  <circle cx="206" cy="56" r="46" fill="#ff8e32" opacity="0.18"/>
  <circle cx="546" cy="336" r="46" fill="#4b4895" opacity="0.12"/>
  <rect x="107.0" y="135.0" width="40.0" height="146.0" rx="6" fill="#2d2a77" opacity="0.92"/><rect x="107.0" y="117.0" width="40.0" height="18" rx="4" fill="#e06e19"/><rect x="111.0" y="186.1" width="32.0" height="32.1" rx="2" fill="#e0e7ff" opacity="0.85"/><rect x="235.5" y="139.5" width="37.0" height="133.0" rx="6" fill="#3c207f" opacity="0.92"/><rect x="235.5" y="119.5" width="37.0" height="20" rx="4" fill="#ec660a"/><rect x="239.5" y="186.1" width="29.0" height="29.3" rx="2" fill="#e0e7ff" opacity="0.85"/><rect x="367.0" y="147.0" width="40.0" height="126.0" rx="6" fill="#2d2a77" opacity="0.92"/><rect x="367.0" y="125.0" width="40.0" height="22" rx="4" fill="#e06e19"/><rect x="371.0" y="191.1" width="32.0" height="27.7" rx="2" fill="#e0e7ff" opacity="0.85"/><rect x="493.5" y="149.5" width="37.0" height="123.0" rx="6" fill="#3c207f" opacity="0.92"/><rect x="493.5" y="131.5" width="37.0" height="18" rx="4" fill="#ec660a"/><rect x="497.5" y="192.6" width="29.0" height="27.1" rx="2" fill="#e0e7ff" opacity="0.85"/>
  <text x="24" y="36" font-family="Arial, sans-serif" font-size="18" font-weight="700" fill="#2d2a77">P18887</text>
  <text x="24" y="62" font-family="Arial, sans-serif" font-size="14" fill="#334155">Beta-Amyloid (25-35) #…</text>
  <text x="24" y="380" font-family="Arial, sans-serif" font-size="12" fill="#64748b">Peptides · unique image</text>
</svg>
