<svg xmlns="http://www.w3.org/2000/svg" width="640" height="400" viewBox="0 0 640 400">
  <defs>
    <linearGradient id="g19005" x1="0" y1="0" x2="1" y2="1">
      <stop offset="0%" stop-color="#fee1b4"/>
      <stop offset="100%" stop-color="#ffeba5"/>
    </linearGradient>
  </defs>
  <rect width="100%" height="100%" fill="url(#g19005)"/>
  <circle cx="158" cy="88" r="38" fill="#2898ce" opacity="0.18"/>
  <circle cx="398" cy="338" r="48" fill="#b85a22" opacity="0.12"/>
  <rect x="65.4" y="138.0" width="42.0" height="144.0" rx="6" fill="#9a3c04" opacity="0.92"/><rect x="65.4" y="120.0" width="42.0" height="18" rx="4" fill="#0078b5"/><rect x="69.4" y="188.4" width="34.0" height="31.7" rx="2" fill="#fffbeb" opacity="0.85"/><rect x="164.4" y="145.0" width="43.0" height="132.0" rx="6" fill="#a9320c" opacity="0.92"/><rect x="164.4" y="125.0" width="43.0" height="20" rx="4" fill="#0070a6"/><rect x="168.4" y="191.2" width="35.0" height="29.0" rx="2" fill="#fffbeb" opacity="0.85"/><rect x="256.3" y="151.0" width="38.0" height="126.0" rx="6" fill="#9a3c04" opacity="0.92"/><rect x="256.3" y="129.0" width="38.0" height="22" rx="4" fill="#0078b5"/><rect x="260.3" y="195.1" width="30.0" height="27.7" rx="2" fill="#fffbeb" opacity="0.85"/><rect x="344.7" y="150.5" width="36.0" height="123.0" rx="6" fill="#a9320c" opacity="0.92"/><rect x="344.7" y="132.5" width="36.0" height="18" rx="4" fill="#0070a6"/><rect x="348.7" y="193.6" width="28.0" height="27.1" rx="2" fill="#fffbeb" opacity="0.85"/><rect x="432.1" y="153.5" width="40.0" height="121.0" rx="6" fill="#9a3c04" opacity="0.92"/><rect x="432.1" y="133.5" width="40.0" height="20" rx="4" fill="#0078b5"/><rect x="436.1" y="195.8" width="32.0" height="26.6" rx="2" fill="#fffbeb" opacity="0.85"/><rect x="529.1" y="148.0" width="37.0" height="120.0" rx="6" fill="#a9320c" opacity="0.92"/><rect x="529.1" y="126.0" width="37.0" height="22" rx="4" fill="#0070a6"/><rect x="533.1" y="190.0" width="29.0" height="26.4" rx="2" fill="#fffbeb" opacity="0.85"/>
  <text x="24" y="36" font-family="Arial, sans-serif" font-size="18" font-weight="700" fill="#9a3c04">P19005</text>
  <text x="24" y="62" font-family="Arial, sans-serif" font-size="14" fill="#334155">Anti-Human Beta-Amyloi…</text>
  <text x="24" y="380" font-family="Arial, sans-serif" font-size="12" fill="#64748b">Antibodies · unique image</text>
</svg>
