<svg xmlns="http://www.w3.org/2000/svg" width="640" height="400" viewBox="0 0 640 400">
  <defs>
    <linearGradient id="g19242" x1="0" y1="0" x2="1" y2="1">
      <stop offset="0%" stop-color="#efedff"/>
      <stop offset="100%" stop-color="#fff7f0"/>
    </linearGradient>
  </defs>
  <rect width="100%" height="100%" fill="url(#g19242)"/>
  <circle cx="359" cy="149" r="59" fill="#e3852c" opacity="0.18"/>
  <circle cx="399" cy="369" r="49" fill="#2e71a8" opacity="0.12"/>
  <rect x="56.5" y="144.5" width="43.0" height="139.0" rx="6" fill="#10538a" opacity="0.92"/><rect x="56.5" y="126.5" width="43.0" height="18" rx="4" fill="#af6513"/><rect x="60.5" y="193.2" width="35.0" height="30.6" rx="2" fill="#f0f9ff" opacity="0.85"/><rect x="138.5" y="149.5" width="43.0" height="129.0" rx="6" fill="#1f4992" opacity="0.92"/><rect x="138.5" y="129.5" width="43.0" height="20" rx="4" fill="#bb5d04"/><rect x="142.5" y="194.7" width="35.0" height="28.4" rx="2" fill="#f0f9ff" opacity="0.85"/><rect x="219.5" y="152.0" width="43.0" height="124.0" rx="6" fill="#10538a" opacity="0.92"/><rect x="219.5" y="130.0" width="43.0" height="22" rx="4" fill="#af6513"/><rect x="223.5" y="195.4" width="35.0" height="27.3" rx="2" fill="#f0f9ff" opacity="0.85"/><rect x="300.5" y="147.0" width="43.0" height="122.0" rx="6" fill="#1f4992" opacity="0.92"/><rect x="300.5" y="129.0" width="43.0" height="18" rx="4" fill="#bb5d04"/><rect x="304.5" y="189.7" width="35.0" height="26.8" rx="2" fill="#f0f9ff" opacity="0.85"/><rect x="385.0" y="142.5" width="38.0" height="141.0" rx="6" fill="#10538a" opacity="0.92"/><rect x="385.0" y="122.5" width="38.0" height="20" rx="4" fill="#af6513"/><rect x="389.0" y="191.8" width="30.0" height="31.0" rx="2" fill="#f0f9ff" opacity="0.85"/><rect x="459.0" y="132.0" width="36.0" height="150.0" rx="6" fill="#1f4992" opacity="0.92"/><rect x="459.0" y="110.0" width="36.0" height="22" rx="4" fill="#bb5d04"/><rect x="463.0" y="184.5" width="28.0" height="33.0" rx="2" fill="#f0f9ff" opacity="0.85"/><rect x="546.5" y="135.5" width="35.0" height="155.0" rx="6" fill="#10538a" opacity="0.92"/><rect x="546.5" y="117.5" width="35.0" height="18" rx="4" fill="#af6513"/><rect x="550.5" y="189.8" width="27.0" height="34.1" rx="2" fill="#f0f9ff" opacity="0.85"/>
  <text x="24" y="36" font-family="Arial, sans-serif" font-size="18" font-weight="700" fill="#10538a">P19242</text>
  <text x="24" y="62" font-family="Arial, sans-serif" font-size="14" fill="#334155">PFF Beta-Amyloid (1-42…</text>
  <text x="24" y="380" font-family="Arial, sans-serif" font-size="12" fill="#64748b">Preformed Fibrils · unique image</text>
</svg>
