<svg xmlns="http://www.w3.org/2000/svg" width="640" height="400" viewBox="0 0 640 400">
  <defs>
    <linearGradient id="g19268" x1="0" y1="0" x2="1" y2="1">
      <stop offset="0%" stop-color="#f9f7eb"/>
      <stop offset="100%" stop-color="#ffffdc"/>
    </linearGradient>
  </defs>
  <rect width="100%" height="100%" fill="url(#g19268)"/>
  <circle cx="213" cy="43" r="33" fill="#ecba28" opacity="0.18"/>
  <circle cx="353" cy="353" r="53" fill="#367296" opacity="0.12"/>
  <rect x="68.9" y="145.5" width="37.0" height="123.0" rx="6" fill="#185478" opacity="0.92"/><rect x="68.9" y="127.5" width="37.0" height="18" rx="4" fill="#b89a0f"/><rect x="72.9" y="188.6" width="29.0" height="27.1" rx="2" fill="#ffffff" opacity="0.85"/><rect x="162.9" y="145.5" width="40.0" height="121.0" rx="6" fill="#274a80" opacity="0.92"/><rect x="162.9" y="125.5" width="40.0" height="20" rx="4" fill="#c49200"/><rect x="166.9" y="187.8" width="32.0" height="26.6" rx="2" fill="#ffffff" opacity="0.85"/><rect x="256.8" y="142.0" width="37.0" height="140.0" rx="6" fill="#185478" opacity="0.92"/><rect x="256.8" y="120.0" width="37.0" height="22" rx="4" fill="#b89a0f"/><rect x="260.8" y="191.0" width="29.0" height="30.8" rx="2" fill="#ffffff" opacity="0.85"/><rect x="347.2" y="137.0" width="35.0" height="150.0" rx="6" fill="#274a80" opacity="0.92"/><rect x="347.2" y="119.0" width="35.0" height="18" rx="4" fill="#c49200"/><rect x="351.2" y="189.5" width="27.0" height="33.0" rx="2" fill="#ffffff" opacity="0.85"/><rect x="435.1" y="141.5" width="34.0" height="135.0" rx="6" fill="#185478" opacity="0.92"/><rect x="435.1" y="121.5" width="34.0" height="20" rx="4" fill="#b89a0f"/><rect x="439.1" y="188.8" width="26.0" height="29.7" rx="2" fill="#ffffff" opacity="0.85"/><rect x="530.6" y="137.5" width="34.0" height="147.0" rx="6" fill="#274a80" opacity="0.92"/><rect x="530.6" y="115.5" width="34.0" height="22" rx="4" fill="#c49200"/><rect x="534.6" y="188.9" width="26.0" height="32.3" rx="2" fill="#ffffff" opacity="0.85"/>
  <text x="24" y="36" font-family="Arial, sans-serif" font-size="18" font-weight="700" fill="#185478">P19268</text>
  <text x="24" y="62" font-family="Arial, sans-serif" font-size="14" fill="#334155">Spike Related Antibody…</text>
  <text x="24" y="380" font-family="Arial, sans-serif" font-size="12" fill="#64748b">Coronavirus Research Tools · unique image</text>
</svg>
