<svg xmlns="http://www.w3.org/2000/svg" width="640" height="400" viewBox="0 0 640 400">
  <defs>
    <linearGradient id="g19635" x1="0" y1="0" x2="1" y2="1">
      <stop offset="0%" stop-color="#ffe2ff"/>
      <stop offset="100%" stop-color="#ffecf0"/>
    </linearGradient>
  </defs>
  <rect width="100%" height="100%" fill="url(#g19635)"/>
  <circle cx="241" cy="131" r="41" fill="#4a88ff" opacity="0.18"/>
  <circle cx="381" cy="321" r="31" fill="#249091" opacity="0.12"/>
  <rect x="107.5" y="138.5" width="35.0" height="145.0" rx="6" fill="#067273" opacity="0.92"/><rect x="107.5" y="120.5" width="35.0" height="18" rx="4" fill="#1668ed"/><rect x="111.5" y="189.2" width="27.0" height="31.9" rx="2" fill="#f8fafc" opacity="0.85"/><rect x="235.0" y="141.0" width="34.0" height="132.0" rx="6" fill="#15687b" opacity="0.92"/><rect x="235.0" y="121.0" width="34.0" height="20" rx="4" fill="#2260de"/><rect x="239.0" y="187.2" width="26.0" height="29.0" rx="2" fill="#f8fafc" opacity="0.85"/><rect x="360.5" y="143.0" width="39.0" height="126.0" rx="6" fill="#067273" opacity="0.92"/><rect x="360.5" y="121.0" width="39.0" height="22" rx="4" fill="#1668ed"/><rect x="364.5" y="187.1" width="31.0" height="27.7" rx="2" fill="#f8fafc" opacity="0.85"/><rect x="494.0" y="148.5" width="36.0" height="123.0" rx="6" fill="#15687b" opacity="0.92"/><rect x="494.0" y="130.5" width="36.0" height="18" rx="4" fill="#2260de"/><rect x="498.0" y="191.6" width="28.0" height="27.1" rx="2" fill="#f8fafc" opacity="0.85"/>
  <text x="24" y="36" font-family="Arial, sans-serif" font-size="18" font-weight="700" fill="#067273">P19635</text>
  <text x="24" y="62" font-family="Arial, sans-serif" font-size="14" fill="#334155">Anti-Human Phospho-199…</text>
  <text x="24" y="380" font-family="Arial, sans-serif" font-size="12" fill="#64748b">Antibodies · unique image</text>
</svg>
