<svg xmlns="http://www.w3.org/2000/svg" width="640" height="400" viewBox="0 0 640 400">
  <defs>
    <linearGradient id="g19782" x1="0" y1="0" x2="1" y2="1">
      <stop offset="0%" stop-color="#edf9f8"/>
      <stop offset="100%" stop-color="#ffffe9"/>
    </linearGradient>
  </defs>
  <rect width="100%" height="100%" fill="url(#g19782)"/>
  <circle cx="482" cy="52" r="42" fill="#36caff" opacity="0.18"/>
  <circle cx="422" cy="332" r="72" fill="#b04e28" opacity="0.12"/>
  <rect x="83.7" y="140.5" width="36.0" height="145.0" rx="6" fill="#92300a" opacity="0.92"/><rect x="83.7" y="122.5" width="36.0" height="18" rx="4" fill="#02aaff"/><rect x="87.7" y="191.2" width="28.0" height="31.9" rx="2" fill="#fffbeb" opacity="0.85"/><rect x="192.8" y="148.0" width="35.0" height="132.0" rx="6" fill="#a12612" opacity="0.92"/><rect x="192.8" y="128.0" width="35.0" height="20" rx="4" fill="#0ea2f6"/><rect x="196.8" y="194.2" width="27.0" height="29.0" rx="2" fill="#fffbeb" opacity="0.85"/><rect x="303.5" y="147.0" width="39.0" height="126.0" rx="6" fill="#92300a" opacity="0.92"/><rect x="303.5" y="125.0" width="39.0" height="22" rx="4" fill="#02aaff"/><rect x="307.5" y="191.1" width="31.0" height="27.7" rx="2" fill="#fffbeb" opacity="0.85"/><rect x="405.7" y="139.5" width="36.0" height="143.0" rx="6" fill="#a12612" opacity="0.92"/><rect x="405.7" y="121.5" width="36.0" height="18" rx="4" fill="#0ea2f6"/><rect x="409.7" y="189.6" width="28.0" height="31.5" rx="2" fill="#fffbeb" opacity="0.85"/><rect x="515.3" y="145.5" width="40.0" height="131.0" rx="6" fill="#92300a" opacity="0.92"/><rect x="515.3" y="125.5" width="40.0" height="20" rx="4" fill="#02aaff"/><rect x="519.3" y="191.3" width="32.0" height="28.8" rx="2" fill="#fffbeb" opacity="0.85"/>
  <text x="24" y="36" font-family="Arial, sans-serif" font-size="18" font-weight="700" fill="#92300a">P19782</text>
  <text x="24" y="62" font-family="Arial, sans-serif" font-size="14" fill="#334155">Polyclonal Phospho-231…</text>
  <text x="24" y="380" font-family="Arial, sans-serif" font-size="12" fill="#64748b">Antibodies · unique image</text>
</svg>
