<svg xmlns="http://www.w3.org/2000/svg" width="640" height="400" viewBox="0 0 640 400">
  <defs>
    <linearGradient id="g20183" x1="0" y1="0" x2="1" y2="1">
      <stop offset="0%" stop-color="#f0e8ff"/>
      <stop offset="100%" stop-color="#fff2f0"/>
    </linearGradient>
  </defs>
  <rect width="100%" height="100%" fill="url(#g20183)"/>
  <circle cx="487" cy="57" r="47" fill="#33b6cd" opacity="0.18"/>
  <circle cx="427" cy="367" r="77" fill="#5f585a" opacity="0.12"/>
  <rect x="90.2" y="144.0" width="41.0" height="136.0" rx="6" fill="#413a3c" opacity="0.92"/><rect x="90.2" y="126.0" width="41.0" height="18" rx="4" fill="#0096b4"/><rect x="94.2" y="191.6" width="33.0" height="29.9" rx="2" fill="#ffffff" opacity="0.85"/><rect x="198.8" y="145.0" width="37.0" height="128.0" rx="6" fill="#503044" opacity="0.92"/><rect x="198.8" y="125.0" width="37.0" height="20" rx="4" fill="#0b8ea5"/><rect x="202.8" y="189.8" width="29.0" height="28.2" rx="2" fill="#ffffff" opacity="0.85"/><rect x="303.0" y="147.0" width="40.0" height="124.0" rx="6" fill="#413a3c" opacity="0.92"/><rect x="303.0" y="125.0" width="40.0" height="22" rx="4" fill="#0096b4"/><rect x="307.0" y="190.4" width="32.0" height="27.3" rx="2" fill="#ffffff" opacity="0.85"/><rect x="405.7" y="148.0" width="42.0" height="122.0" rx="6" fill="#503044" opacity="0.92"/><rect x="405.7" y="130.0" width="42.0" height="18" rx="4" fill="#0b8ea5"/><rect x="409.7" y="190.7" width="34.0" height="26.8" rx="2" fill="#ffffff" opacity="0.85"/><rect x="515.3" y="150.5" width="38.0" height="121.0" rx="6" fill="#413a3c" opacity="0.92"/><rect x="515.3" y="130.5" width="38.0" height="20" rx="4" fill="#0096b4"/><rect x="519.3" y="192.8" width="30.0" height="26.6" rx="2" fill="#ffffff" opacity="0.85"/>
  <text x="24" y="36" font-family="Arial, sans-serif" font-size="18" font-weight="700" fill="#413a3c">P20183</text>
  <text x="24" y="62" font-family="Arial, sans-serif" font-size="14" fill="#334155">Recombinant Alpha-Synu…</text>
  <text x="24" y="380" font-family="Arial, sans-serif" font-size="12" fill="#64748b">Proteins · unique image</text>
</svg>
